<mxfile host="app.diagrams.net" modified="2022-05-25T14:51:18.709Z" agent="5.0 (Windows)" etag="4WkWKhT_B7g2V5W3o3gL" version="18.1.2" type="github">
  <diagram id="ZjD6zPGDM3K0yuI6pRIY" name="Page-1">
    <mxGraphModel dx="1736" dy="1022" grid="1" gridSize="10" guides="1" tooltips="1" connect="1" arrows="1" fold="1" page="1" pageScale="1" pageWidth="850" pageHeight="1100" math="0" shadow="0">
      <root>
        <mxCell id="0" />
        <mxCell id="1" parent="0" />
        <mxCell id="QYmY-8vBMbnwbrTFeHoW-6" style="edgeStyle=orthogonalEdgeStyle;orthogonalLoop=1;jettySize=auto;html=1;exitX=0.5;exitY=1;exitDx=0;exitDy=0;entryX=1;entryY=0.5;entryDx=0;entryDy=0;rounded=1;shadow=0;dashed=1;" parent="1" source="QYmY-8vBMbnwbrTFeHoW-2" target="QYmY-8vBMbnwbrTFeHoW-5" edge="1">
          <mxGeometry relative="1" as="geometry" />
        </mxCell>
        <mxCell id="QYmY-8vBMbnwbrTFeHoW-2" value="EXTENSION_INIT" style="rounded=1;whiteSpace=wrap;html=1;fillColor=#e3c800;strokeColor=#B09500;fontColor=#000000;" parent="1" vertex="1">
          <mxGeometry x="525" y="190" width="160" height="80" as="geometry" />
        </mxCell>
        <mxCell id="QYmY-8vBMbnwbrTFeHoW-8" style="edgeStyle=orthogonalEdgeStyle;rounded=1;orthogonalLoop=1;jettySize=auto;html=1;exitX=0.5;exitY=1;exitDx=0;exitDy=0;shadow=0;dashed=1;" parent="1" source="QYmY-8vBMbnwbrTFeHoW-5" target="QYmY-8vBMbnwbrTFeHoW-7" edge="1">
          <mxGeometry relative="1" as="geometry" />
        </mxCell>
        <mxCell id="QYmY-8vBMbnwbrTFeHoW-31" style="edgeStyle=orthogonalEdgeStyle;rounded=1;orthogonalLoop=1;jettySize=auto;html=1;exitX=1;exitY=0.25;exitDx=0;exitDy=0;entryX=0.25;entryY=1;entryDx=0;entryDy=0;shadow=0;dashed=1;fillColor=#1ba1e2;strokeColor=#006EAF;" parent="1" source="QYmY-8vBMbnwbrTFeHoW-5" target="QYmY-8vBMbnwbrTFeHoW-2" edge="1">
          <mxGeometry relative="1" as="geometry" />
        </mxCell>
        <mxCell id="QYmY-8vBMbnwbrTFeHoW-5" value="CORE" style="rounded=1;whiteSpace=wrap;html=1;fillColor=#1ba1e2;fontColor=#ffffff;strokeColor=#006EAF;" parent="1" vertex="1">
          <mxGeometry x="250" y="320" width="120" height="60" as="geometry" />
        </mxCell>
        <mxCell id="QYmY-8vBMbnwbrTFeHoW-10" style="edgeStyle=orthogonalEdgeStyle;rounded=1;orthogonalLoop=1;jettySize=auto;html=1;exitX=1;exitY=0.5;exitDx=0;exitDy=0;entryX=0;entryY=0.5;entryDx=0;entryDy=0;shadow=0;dashed=1;fillColor=#e51400;strokeColor=#B20000;" parent="1" source="QYmY-8vBMbnwbrTFeHoW-7" target="QYmY-8vBMbnwbrTFeHoW-9" edge="1">
          <mxGeometry relative="1" as="geometry" />
        </mxCell>
        <mxCell id="QYmY-8vBMbnwbrTFeHoW-14" style="edgeStyle=orthogonalEdgeStyle;rounded=1;orthogonalLoop=1;jettySize=auto;html=1;exitX=0.5;exitY=1;exitDx=0;exitDy=0;entryX=0.5;entryY=0;entryDx=0;entryDy=0;shadow=0;dashed=1;fillColor=#60a917;strokeColor=#2D7600;" parent="1" source="QYmY-8vBMbnwbrTFeHoW-7" target="QYmY-8vBMbnwbrTFeHoW-34" edge="1">
          <mxGeometry relative="1" as="geometry" />
        </mxCell>
        <mxCell id="QYmY-8vBMbnwbrTFeHoW-30" style="edgeStyle=orthogonalEdgeStyle;rounded=1;orthogonalLoop=1;jettySize=auto;html=1;exitX=0;exitY=0.5;exitDx=0;exitDy=0;entryX=0;entryY=0.25;entryDx=0;entryDy=0;shadow=0;dashed=1;fillColor=#1ba1e2;strokeColor=#006EAF;" parent="1" source="QYmY-8vBMbnwbrTFeHoW-34" target="QYmY-8vBMbnwbrTFeHoW-5" edge="1">
          <mxGeometry relative="1" as="geometry" />
        </mxCell>
        <mxCell id="QYmY-8vBMbnwbrTFeHoW-7" value="Is correct key" style="rhombus;whiteSpace=wrap;html=1;fillColor=#d80073;fontColor=#ffffff;strokeColor=#A50040;" parent="1" vertex="1">
          <mxGeometry x="260" y="440" width="100" height="100" as="geometry" />
        </mxCell>
        <mxCell id="QYmY-8vBMbnwbrTFeHoW-9" value="Error: invalid token" style="whiteSpace=wrap;html=1;fillColor=#e51400;fontColor=#ffffff;strokeColor=#B20000;" parent="1" vertex="1">
          <mxGeometry x="430" y="460" width="120" height="60" as="geometry" />
        </mxCell>
        <mxCell id="QYmY-8vBMbnwbrTFeHoW-11" value="No" style="text;html=1;align=center;verticalAlign=middle;resizable=0;points=[];autosize=1;strokeColor=none;fillColor=none;" parent="1" vertex="1">
          <mxGeometry x="370" y="470" width="30" height="20" as="geometry" />
        </mxCell>
        <mxCell id="QYmY-8vBMbnwbrTFeHoW-17" style="edgeStyle=orthogonalEdgeStyle;rounded=1;orthogonalLoop=1;jettySize=auto;html=1;exitX=1;exitY=0.5;exitDx=0;exitDy=0;entryX=0;entryY=0.5;entryDx=0;entryDy=0;shadow=0;dashed=1;fillColor=#e51400;strokeColor=#B20000;" parent="1" source="QYmY-8vBMbnwbrTFeHoW-12" target="QYmY-8vBMbnwbrTFeHoW-22" edge="1">
          <mxGeometry relative="1" as="geometry" />
        </mxCell>
        <mxCell id="QYmY-8vBMbnwbrTFeHoW-46" style="edgeStyle=orthogonalEdgeStyle;rounded=1;orthogonalLoop=1;jettySize=auto;html=1;exitX=0.5;exitY=1;exitDx=0;exitDy=0;entryX=0.5;entryY=0;entryDx=0;entryDy=0;shadow=0;dashed=1;" parent="1" source="QYmY-8vBMbnwbrTFeHoW-12" target="li03ov06QK7Q-1gpEoUl-1" edge="1">
          <mxGeometry relative="1" as="geometry" />
        </mxCell>
        <mxCell id="QYmY-8vBMbnwbrTFeHoW-12" value="All of the dependencies reachable" style="rhombus;whiteSpace=wrap;html=1;fillColor=#d80073;fontColor=#ffffff;strokeColor=#A50040;" parent="1" vertex="1">
          <mxGeometry x="260" y="720" width="100" height="100" as="geometry" />
        </mxCell>
        <mxCell id="QYmY-8vBMbnwbrTFeHoW-15" value="Yes" style="text;html=1;align=center;verticalAlign=middle;resizable=0;points=[];autosize=1;strokeColor=none;fillColor=none;" parent="1" vertex="1">
          <mxGeometry x="310" y="550" width="40" height="20" as="geometry" />
        </mxCell>
        <mxCell id="QYmY-8vBMbnwbrTFeHoW-16" value="Error: dependencies not reachable" style="whiteSpace=wrap;html=1;fillColor=#e51400;fontColor=#ffffff;strokeColor=#B20000;" parent="1" vertex="1">
          <mxGeometry x="650" y="830" width="120" height="60" as="geometry" />
        </mxCell>
        <mxCell id="QYmY-8vBMbnwbrTFeHoW-18" value="No" style="text;html=1;align=center;verticalAlign=middle;resizable=0;points=[];autosize=1;strokeColor=none;fillColor=none;" parent="1" vertex="1">
          <mxGeometry x="365" y="750" width="30" height="20" as="geometry" />
        </mxCell>
        <mxCell id="QYmY-8vBMbnwbrTFeHoW-24" style="edgeStyle=orthogonalEdgeStyle;rounded=1;orthogonalLoop=1;jettySize=auto;html=1;exitX=0.5;exitY=1;exitDx=0;exitDy=0;entryX=1;entryY=1;entryDx=0;entryDy=0;shadow=0;dashed=1;fillColor=#60a917;strokeColor=#2D7600;" parent="1" source="QYmY-8vBMbnwbrTFeHoW-22" target="QYmY-8vBMbnwbrTFeHoW-12" edge="1">
          <mxGeometry relative="1" as="geometry" />
        </mxCell>
        <mxCell id="QYmY-8vBMbnwbrTFeHoW-28" style="edgeStyle=orthogonalEdgeStyle;rounded=1;orthogonalLoop=1;jettySize=auto;html=1;exitX=1;exitY=0.5;exitDx=0;exitDy=0;entryX=0;entryY=0.5;entryDx=0;entryDy=0;shadow=0;dashed=1;fillColor=#e51400;strokeColor=#B20000;" parent="1" source="QYmY-8vBMbnwbrTFeHoW-22" target="QYmY-8vBMbnwbrTFeHoW-37" edge="1">
          <mxGeometry relative="1" as="geometry" />
        </mxCell>
        <mxCell id="QYmY-8vBMbnwbrTFeHoW-22" value="Is Saas" style="rhombus;whiteSpace=wrap;html=1;fillColor=#d80073;fontColor=#ffffff;strokeColor=#A50040;" parent="1" vertex="1">
          <mxGeometry x="440" y="720" width="100" height="100" as="geometry" />
        </mxCell>
        <mxCell id="QYmY-8vBMbnwbrTFeHoW-25" value="Yes" style="text;html=1;align=center;verticalAlign=middle;resizable=0;points=[];autosize=1;strokeColor=none;fillColor=none;" parent="1" vertex="1">
          <mxGeometry x="445" y="820" width="40" height="20" as="geometry" />
        </mxCell>
        <mxCell id="QYmY-8vBMbnwbrTFeHoW-26" value="Wait until they have started" style="text;html=1;align=center;verticalAlign=middle;resizable=0;points=[];autosize=1;strokeColor=none;fillColor=none;" parent="1" vertex="1">
          <mxGeometry x="365" y="840" width="160" height="20" as="geometry" />
        </mxCell>
        <mxCell id="QYmY-8vBMbnwbrTFeHoW-29" value="No" style="text;html=1;align=center;verticalAlign=middle;resizable=0;points=[];autosize=1;strokeColor=none;fillColor=none;" parent="1" vertex="1">
          <mxGeometry x="540" y="750" width="30" height="20" as="geometry" />
        </mxCell>
        <mxCell id="QYmY-8vBMbnwbrTFeHoW-36" style="edgeStyle=orthogonalEdgeStyle;rounded=1;orthogonalLoop=1;jettySize=auto;html=1;exitX=0.5;exitY=1;exitDx=0;exitDy=0;shadow=0;dashed=1;" parent="1" source="QYmY-8vBMbnwbrTFeHoW-34" target="QYmY-8vBMbnwbrTFeHoW-12" edge="1">
          <mxGeometry relative="1" as="geometry" />
        </mxCell>
        <mxCell id="QYmY-8vBMbnwbrTFeHoW-34" value="Generate ID for extension" style="rounded=1;whiteSpace=wrap;html=1;fillColor=#fa6800;fontColor=#000000;strokeColor=#C73500;" parent="1" vertex="1">
          <mxGeometry x="250" y="590" width="120" height="60" as="geometry" />
        </mxCell>
        <mxCell id="QYmY-8vBMbnwbrTFeHoW-35" value="Send generated id" style="text;html=1;align=center;verticalAlign=middle;resizable=0;points=[];autosize=1;strokeColor=none;fillColor=none;" parent="1" vertex="1">
          <mxGeometry x="390" y="310" width="110" height="20" as="geometry" />
        </mxCell>
        <mxCell id="QYmY-8vBMbnwbrTFeHoW-43" style="edgeStyle=orthogonalEdgeStyle;rounded=1;orthogonalLoop=1;jettySize=auto;html=1;exitX=0.5;exitY=1;exitDx=0;exitDy=0;entryX=0.5;entryY=0;entryDx=0;entryDy=0;shadow=0;dashed=1;" parent="1" source="QYmY-8vBMbnwbrTFeHoW-37" target="QYmY-8vBMbnwbrTFeHoW-16" edge="1">
          <mxGeometry relative="1" as="geometry" />
        </mxCell>
        <mxCell id="QYmY-8vBMbnwbrTFeHoW-37" value="EXTENSION_INIT_FAILED" style="rounded=1;whiteSpace=wrap;html=1;fillColor=#e3c800;fontColor=#000000;strokeColor=#B09500;" parent="1" vertex="1">
          <mxGeometry x="620" y="740" width="180" height="60" as="geometry" />
        </mxCell>
        <mxCell id="QYmY-8vBMbnwbrTFeHoW-39" value="Event" style="rounded=1;whiteSpace=wrap;html=1;fillColor=#e3c800;fontColor=#000000;strokeColor=#B09500;" parent="1" vertex="1">
          <mxGeometry x="40" y="50" width="120" height="60" as="geometry" />
        </mxCell>
        <mxCell id="QYmY-8vBMbnwbrTFeHoW-40" value="Service" style="rounded=1;whiteSpace=wrap;html=1;fillColor=#1ba1e2;fontColor=#ffffff;strokeColor=#006EAF;" parent="1" vertex="1">
          <mxGeometry x="40" y="120" width="120" height="60" as="geometry" />
        </mxCell>
        <mxCell id="QYmY-8vBMbnwbrTFeHoW-41" value="Error" style="whiteSpace=wrap;html=1;fillColor=#e51400;fontColor=#ffffff;strokeColor=#B20000;" parent="1" vertex="1">
          <mxGeometry x="40" y="190" width="120" height="60" as="geometry" />
        </mxCell>
        <mxCell id="QYmY-8vBMbnwbrTFeHoW-42" value="&lt;div&gt;Action&lt;/div&gt;" style="rounded=1;whiteSpace=wrap;html=1;fillColor=#fa6800;fontColor=#000000;strokeColor=#C73500;" parent="1" vertex="1">
          <mxGeometry x="40" y="260" width="120" height="60" as="geometry" />
        </mxCell>
        <mxCell id="QYmY-8vBMbnwbrTFeHoW-45" value="EXTENSION_INIT_SUCCESSFUL" style="rounded=1;whiteSpace=wrap;html=1;fillColor=#e3c800;fontColor=#000000;strokeColor=#B09500;" parent="1" vertex="1">
          <mxGeometry x="974" y="130" width="220" height="60" as="geometry" />
        </mxCell>
        <mxCell id="li03ov06QK7Q-1gpEoUl-4" style="edgeStyle=orthogonalEdgeStyle;rounded=0;orthogonalLoop=1;jettySize=auto;html=1;exitX=0.5;exitY=1;exitDx=0;exitDy=0;entryX=0.5;entryY=0;entryDx=0;entryDy=0;dashed=1;" edge="1" parent="1" target="li03ov06QK7Q-1gpEoUl-2">
          <mxGeometry relative="1" as="geometry">
            <mxPoint x="1134" y="190" as="sourcePoint" />
          </mxGeometry>
        </mxCell>
        <mxCell id="li03ov06QK7Q-1gpEoUl-1" value="EXTENSION_INIT_SUCCESSFUL" style="rounded=1;whiteSpace=wrap;html=1;fillColor=#e3c800;fontColor=#000000;strokeColor=#B09500;" vertex="1" parent="1">
          <mxGeometry x="250" y="930" width="220" height="60" as="geometry" />
        </mxCell>
        <mxCell id="li03ov06QK7Q-1gpEoUl-6" style="edgeStyle=orthogonalEdgeStyle;rounded=0;orthogonalLoop=1;jettySize=auto;html=1;exitX=0.5;exitY=1;exitDx=0;exitDy=0;entryX=0.5;entryY=0;entryDx=0;entryDy=0;dashed=1;" edge="1" parent="1" source="li03ov06QK7Q-1gpEoUl-2" target="li03ov06QK7Q-1gpEoUl-5">
          <mxGeometry relative="1" as="geometry" />
        </mxCell>
        <mxCell id="li03ov06QK7Q-1gpEoUl-2" value="GATEWAY" style="rounded=1;whiteSpace=wrap;html=1;fillColor=#1ba1e2;fontColor=#ffffff;strokeColor=#006EAF;" vertex="1" parent="1">
          <mxGeometry x="1074" y="240" width="120" height="60" as="geometry" />
        </mxCell>
        <mxCell id="li03ov06QK7Q-1gpEoUl-3" style="edgeStyle=orthogonalEdgeStyle;rounded=0;orthogonalLoop=1;jettySize=auto;html=1;exitX=0.5;exitY=1;exitDx=0;exitDy=0;" edge="1" parent="1" source="li03ov06QK7Q-1gpEoUl-2" target="li03ov06QK7Q-1gpEoUl-2">
          <mxGeometry relative="1" as="geometry" />
        </mxCell>
        <mxCell id="li03ov06QK7Q-1gpEoUl-8" style="edgeStyle=orthogonalEdgeStyle;rounded=0;orthogonalLoop=1;jettySize=auto;html=1;exitX=0.5;exitY=1;exitDx=0;exitDy=0;entryX=0.5;entryY=0;entryDx=0;entryDy=0;dashed=1;" edge="1" parent="1" source="li03ov06QK7Q-1gpEoUl-5" target="li03ov06QK7Q-1gpEoUl-7">
          <mxGeometry relative="1" as="geometry" />
        </mxCell>
        <mxCell id="li03ov06QK7Q-1gpEoUl-5" value="Register endpoints" style="rounded=1;whiteSpace=wrap;html=1;fillColor=#fa6800;fontColor=#000000;strokeColor=#C73500;" vertex="1" parent="1">
          <mxGeometry x="1074" y="350" width="120" height="60" as="geometry" />
        </mxCell>
        <mxCell id="li03ov06QK7Q-1gpEoUl-7" value="EXTENSION_URL_REGISTRATION_SUCCESSFUL" style="rounded=1;whiteSpace=wrap;html=1;fillColor=#e3c800;fontColor=#000000;strokeColor=#B09500;" vertex="1" parent="1">
          <mxGeometry x="969" y="450" width="330" height="60" as="geometry" />
        </mxCell>
        <mxCell id="li03ov06QK7Q-1gpEoUl-11" style="edgeStyle=orthogonalEdgeStyle;rounded=0;orthogonalLoop=1;jettySize=auto;html=1;exitX=0.5;exitY=1;exitDx=0;exitDy=0;entryX=0.5;entryY=0;entryDx=0;entryDy=0;dashed=1;" edge="1" parent="1" source="li03ov06QK7Q-1gpEoUl-9" target="li03ov06QK7Q-1gpEoUl-10">
          <mxGeometry relative="1" as="geometry" />
        </mxCell>
        <mxCell id="li03ov06QK7Q-1gpEoUl-9" value="EXTENSION_URL_REGISTRATION_SUCCESSFUL" style="rounded=1;whiteSpace=wrap;html=1;fillColor=#e3c800;fontColor=#000000;strokeColor=#B09500;" vertex="1" parent="1">
          <mxGeometry x="970" y="650" width="330" height="60" as="geometry" />
        </mxCell>
        <mxCell id="li03ov06QK7Q-1gpEoUl-13" style="edgeStyle=orthogonalEdgeStyle;rounded=0;orthogonalLoop=1;jettySize=auto;html=1;exitX=0.5;exitY=1;exitDx=0;exitDy=0;dashed=1;" edge="1" parent="1" source="li03ov06QK7Q-1gpEoUl-10" target="li03ov06QK7Q-1gpEoUl-12">
          <mxGeometry relative="1" as="geometry" />
        </mxCell>
        <mxCell id="li03ov06QK7Q-1gpEoUl-10" value="EXTENSION" style="rounded=1;whiteSpace=wrap;html=1;fillColor=#1ba1e2;fontColor=#ffffff;strokeColor=#006EAF;" vertex="1" parent="1">
          <mxGeometry x="1074" y="770" width="120" height="60" as="geometry" />
        </mxCell>
        <mxCell id="li03ov06QK7Q-1gpEoUl-12" value="START" style="rounded=1;whiteSpace=wrap;html=1;fillColor=#fa6800;fontColor=#000000;strokeColor=#C73500;" vertex="1" parent="1">
          <mxGeometry x="1075" y="880" width="120" height="60" as="geometry" />
        </mxCell>
      </root>
    </mxGraphModel>
  </diagram>
</mxfile>
